HIERARCHY
ROOT Hips
{
    OFFSET   0.000000   0.000000   0.000000
    CHANNELS 6 Xposition Yposition Zposition Zrotation Xrotation Yrotation
    JOINT Chest
    {
        OFFSET   0.000000   8.007240   0.000000
        CHANNELS 3 Zrotation Xrotation Yrotation
        JOINT Chest2
        {
            OFFSET   0.000000  22.077100   0.000000
            CHANNELS 3 Zrotation Xrotation Yrotation
            JOINT Neck
            {
                OFFSET   0.000000  23.254800   0.000000
                CHANNELS 3 Zrotation Xrotation Yrotation
                JOINT Head
                {
                    OFFSET   0.000000  14.370000   1.956600
                    CHANNELS 3 Zrotation Xrotation Yrotation
                    End Site
                    {
                        OFFSET   0.000000  19.566000   0.000000
                    }
                }
            }
            JOINT LeftCollar
            {
                OFFSET   3.911900  19.017000  -0.467064
                CHANNELS 3 Zrotation Xrotation Yrotation
                JOINT LeftShoulder
                {
                    OFFSET  10.383700   0.000000   0.000000
                    CHANNELS 3 Zrotation Xrotation Yrotation
                    JOINT LeftElbow
                    {
                        OFFSET  26.662100   0.001476   0.000517
                        CHANNELS 3 Zrotation Xrotation Yrotation
                        JOINT LeftWrist
                        {
                            OFFSET  28.869000  -0.000025  -0.000106
                            CHANNELS 3 Zrotation Xrotation Yrotation
                            JOINT LeftFinger0
                            {
                                OFFSET   2.044660  -2.323460   3.252850
                                CHANNELS 3 Zrotation Xrotation Yrotation
                                JOINT LeftFinger01
                                {
                                    OFFSET   3.088130   0.000000   0.000000
                                    CHANNELS 3 Zrotation Xrotation Yrotation
                                    JOINT LeftFinger02
                                    {
                                        OFFSET   2.639460   0.000000   0.000000
                                        CHANNELS 3 Zrotation Xrotation Yrotation
                                        End Site
                                        {
                                            OFFSET   2.582190   0.000000   0.000000
                                        }
                                    }
                                }
                            }
                            JOINT LeftFinger1
                            {
                                OFFSET   8.364480   0.000000   3.252850
                                CHANNELS 3 Zrotation Xrotation Yrotation
                                JOINT LeftFinger11
                                {
                                    OFFSET   4.646930   0.000000   0.000000
                                    CHANNELS 3 Zrotation Xrotation Yrotation
                                    JOINT LeftFinger12
                                    {
                                        OFFSET   2.323460   0.000000   0.000000
                                        CHANNELS 3 Zrotation Xrotation Yrotation
                                        End Site
                                        {
                                            OFFSET   2.273050   0.000000   0.000000
                                        }
                                    }
                                }
                            }
                            JOINT LeftFinger2
                            {
                                OFFSET   8.364490   0.000015   1.078090
                                CHANNELS 3 Zrotation Xrotation Yrotation
                                JOINT LeftFinger21
                                {
                                    OFFSET   5.111620   0.000000   0.000000
                                    CHANNELS 3 Zrotation Xrotation Yrotation
                                    JOINT LeftFinger22
                                    {
                                        OFFSET   2.788160   0.000016   0.000000
                                        CHANNELS 3 Zrotation Xrotation Yrotation
                                        End Site
                                        {
                                            OFFSET   2.727660   0.000000   0.000000
                                        }
                                    }
                                }
                            }
                            JOINT LeftFinger3
                            {
                                OFFSET   7.899780   0.000017  -1.078090
                                CHANNELS 3 Zrotation Xrotation Yrotation
                                JOINT LeftFinger31
                                {
                                    OFFSET   4.646930   0.000000   0.000000
                                    CHANNELS 3 Zrotation Xrotation Yrotation
                                    JOINT LeftFinger32
                                    {
                                        OFFSET   2.323470   0.000000   0.000000
                                        CHANNELS 3 Zrotation Xrotation Yrotation
                                        End Site
                                        {
                                            OFFSET   2.273050   0.000000   0.000000
                                        }
                                    }
                                }
                            }
                            JOINT LeftFinger4
                            {
                                OFFSET   7.435090   0.000000  -3.252850
                                CHANNELS 3 Zrotation Xrotation Yrotation
                                JOINT LeftFinger41
                                {
                                    OFFSET   3.717550   0.000000   0.000000
                                    CHANNELS 3 Zrotation Xrotation Yrotation
                                    JOINT LeftFinger42
                                    {
                                        OFFSET   1.858770   0.000000   0.000000
                                        CHANNELS 3 Zrotation Xrotation Yrotation
                                        End Site
                                        {
                                            OFFSET   1.818440   0.000000   0.000000
                                        }
                                    }
                                }
                            }
                        }
                    }
                }
            }
            JOINT RightCollar
            {
                OFFSET  -3.911900  19.017000  -0.467063
                CHANNELS 3 Zrotation Xrotation Yrotation
                JOINT RightShoulder
                {
                    OFFSET -10.383700   0.000019   0.000000
                    CHANNELS 3 Zrotation Xrotation Yrotation
                    JOINT RightElbow
                    {
                        OFFSET -26.662100   0.001175   0.000102
                        CHANNELS 3 Zrotation Xrotation Yrotation
                        JOINT RightWrist
                        {
                            OFFSET -28.869000   0.000016  -0.000079
                            CHANNELS 3 Zrotation Xrotation Yrotation
                            JOINT RightFinger0
                            {
                                OFFSET  -2.044660  -2.323490   3.252850
                                CHANNELS 3 Zrotation Xrotation Yrotation
                                JOINT RightFinger01
                                {
                                    OFFSET  -3.088140   0.000000   0.000000
                                    CHANNELS 3 Zrotation Xrotation Yrotation
                                    JOINT RightFinger02
                                    {
                                        OFFSET  -2.639460   0.000000   0.000000
                                        CHANNELS 3 Zrotation Xrotation Yrotation
                                        End Site
                                        {
                                            OFFSET  -2.582190   0.000000   0.000000
                                        }
                                    }
                                }
                            }
                            JOINT RightFinger1
                            {
                                OFFSET  -8.364480   0.000000   3.252850
                                CHANNELS 3 Zrotation Xrotation Yrotation
                                JOINT RightFinger11
                                {
                                    OFFSET  -4.646930   0.000000   0.000000
                                    CHANNELS 3 Zrotation Xrotation Yrotation
                                    JOINT RightFinger12
                                    {
                                        OFFSET  -2.323470   0.000000   0.000000
                                        CHANNELS 3 Zrotation Xrotation Yrotation
                                        End Site
                                        {
                                            OFFSET  -2.273050   0.000000   0.000000
                                        }
                                    }
                                }
                            }
                            JOINT RightFinger2
                            {
                                OFFSET  -8.364480   0.000000   1.078090
                                CHANNELS 3 Zrotation Xrotation Yrotation
                                JOINT RightFinger21
                                {
                                    OFFSET  -5.111620   0.000000   0.000000
                                    CHANNELS 3 Zrotation Xrotation Yrotation
                                    JOINT RightFinger22
                                    {
                                        OFFSET  -2.788160   0.000000   0.000000
                                        CHANNELS 3 Zrotation Xrotation Yrotation
                                        End Site
                                        {
                                            OFFSET  -2.727660   0.000000   0.000000
                                        }
                                    }
                                }
                            }
                            JOINT RightFinger3
                            {
                                OFFSET  -7.899780   0.000000  -1.078090
                                CHANNELS 3 Zrotation Xrotation Yrotation
                                JOINT RightFinger31
                                {
                                    OFFSET  -4.646930   0.000000   0.000000
                                    CHANNELS 3 Zrotation Xrotation Yrotation
                                    JOINT RightFinger32
                                    {
                                        OFFSET  -2.323470   0.000000   0.000000
                                        CHANNELS 3 Zrotation Xrotation Yrotation
                                        End Site
                                        {
                                            OFFSET  -2.273050   0.000000   0.000000
                                        }
                                    }
                                }
                            }
                            JOINT RightFinger4
                            {
                                OFFSET  -7.435090   0.000000  -3.252850
                                CHANNELS 3 Zrotation Xrotation Yrotation
                                JOINT RightFinger41
                                {
                                    OFFSET  -3.717550   0.000000   0.000000
                                    CHANNELS 3 Zrotation Xrotation Yrotation
                                    JOINT RightFinger42
                                    {
                                        OFFSET  -1.858770   0.000000   0.000000
                                        CHANNELS 3 Zrotation Xrotation Yrotation
                                        End Site
                                        {
                                            OFFSET  -1.818440   0.000000   0.000000
                                        }
                                    }
                                }
                            }
                        }
                    }
                }
            }
        }
    }
    JOINT LeftHip
    {
        OFFSET   9.783040   0.000000   0.000000
        CHANNELS 3 Zrotation Xrotation Yrotation
        JOINT LeftKnee
        {
            OFFSET   0.000032 -41.789100  -0.002222
            CHANNELS 3 Zrotation Xrotation Yrotation
            JOINT LeftAnkle
            {
                OFFSET   0.000087 -41.133200  -0.000135
                CHANNELS 3 Zrotation Xrotation Yrotation
                JOINT LeftToe
                {
                    OFFSET   0.000000  -6.358960  14.674500
                    CHANNELS 3 Zrotation Xrotation Yrotation
                    End Site
                    {
                        OFFSET   0.000000   0.000000   3.913200
                    }
                }
            }
        }
    }
    JOINT RightHip
    {
        OFFSET  -9.783040   0.000000   0.000000
        CHANNELS 3 Zrotation Xrotation Yrotation
        JOINT RightKnee
        {
            OFFSET   0.000047 -41.789100  -0.000896
            CHANNELS 3 Zrotation Xrotation Yrotation
            JOINT RightAnkle
            {
                OFFSET  -0.000117 -41.133300  -0.000248
                CHANNELS 3 Zrotation Xrotation Yrotation
                JOINT RightToe
                {
                    OFFSET   0.000000  -6.358970  14.674500
                    CHANNELS 3 Zrotation Xrotation Yrotation
                    End Site
                    {
                        OFFSET   0.000000   0.000000   3.913200
                    }
                }
            }
        }
    }
}
MOTION
Frames: 4
Frame Time:   0.016667
 -0.269690  89.518200 -10.911700  -0.054089  -2.969220   2.405460   0.495125   2.493270  -0.177885   0.999437   4.984940  -0.377879  -0.697165   0.046400   0.003066  -1.145240   0.094753   2.212880  -8.183420   2.752670  -0.008129 -72.923300  10.382500  -7.132200  -1.000280   2.142910 -12.393400   5.220170  -4.963760   2.927810  40.988500  33.984000 -57.314300 -31.128900   0.002683   0.002056 -10.548700   0.008627   0.002824 -36.053400   8.954660 -12.080900 -30.274700  -0.004421   0.003803 -21.202100  -0.003437   0.003653 -28.417500  -3.700470   5.898610 -42.678500   0.005970  -0.011855 -28.423900   0.004125   0.000359 -28.885600  -4.860450   8.749860 -43.886000   0.001355  -0.012237 -29.243000   0.001560  -0.000625 -38.069600 -12.656200  15.614700 -59.718300  -0.001517  -0.007458 -39.772400  -0.002339   0.001271   8.969680   0.088082   5.320780  72.127500   0.622646   1.920360  -2.470870  -9.159660   9.576760  -7.504630  -9.111610   1.569560 -36.235400  32.451300  68.294800  33.378300  -0.000561   0.000476  11.689200  -0.000296   0.002149  37.585700   9.282040  11.835400  31.540900  -0.005617   0.003408  22.078600  -0.004768   0.003890  36.262300  -0.002575   0.009673  54.025000   0.005892  -0.003584  36.054800   0.003702   0.009883  32.316500  -5.377630  -8.447440  49.070700  -0.004220  -0.001084  32.681100   0.004959  -0.000803  40.800100 -13.368200 -15.013800  63.854300  -0.005726   0.002263  42.526900   0.000182  -0.000506   1.718810   5.045530  -0.528548   0.897778   0.031355  10.999300  -3.399860  -1.857920   0.868199   0.000000   0.000000   0.000000  -0.526687   5.508870  -2.417770   0.462295   0.123732 -15.644400  -0.275602  -2.541150  -1.974080  -0.000000   0.000000  -0.000000
 -0.265327  89.518200 -10.919100  -0.056273  -2.969310   2.363210   0.494924   2.502240  -0.179207   0.999094   5.002850  -0.380605  -0.680216   0.035086   0.003063  -1.117490   0.071743   2.427610  -8.183520   2.758520  -0.008342 -72.920100  10.398600  -7.137710  -1.011790   2.141250 -12.413600   5.219390  -4.963620   2.918830  40.989800  33.973000 -57.318900 -31.113100   0.002687   0.002054 -10.548700   0.008624   0.002826 -36.059800   8.954700 -12.080800 -30.279900  -0.004421   0.003800 -21.202300  -0.003434   0.003652 -28.417600  -3.700480   5.896960 -42.692700   0.005973  -0.011857 -28.433400   0.004126   0.000356 -28.889400  -4.860450   8.749860 -43.891600   0.001355  -0.012239 -29.243200   0.001561  -0.000629 -38.079500 -12.656200  15.614700 -59.733000  -0.001521  -0.007457 -39.782200  -0.002341   0.001272   8.969580   0.088083   5.313200  72.131200   0.622028   1.915470  -2.465860  -9.159370   9.582080  -7.494950  -9.111280   1.560950 -36.232900  32.455900  68.290500  33.392400  -0.000559   0.000435  11.696200  -0.000298   0.002150  37.530100   9.270530  11.844300  31.495000  -0.005613   0.003406  22.046500  -0.004769   0.003889  36.208300  -0.002575   0.009672  54.038600   0.005892  -0.003586  36.045700   0.003700   0.009882  32.311000  -5.377740  -8.447420  49.062500  -0.004220  -0.001083  32.675600   0.004959  -0.000803  40.797000 -13.368400 -15.013600  63.849700  -0.005728   0.002264  42.523900   0.000182  -0.000506   1.710740   5.068830  -0.528534   0.898372  -0.005273  11.023300  -3.395900  -1.839660   0.886174   0.000000   0.000000  -0.000000  -0.537326   5.468450  -2.424130   0.461851   0.149290 -15.635600  -0.276529  -2.525480  -1.933120  -0.000000   0.000000  -0.000000
 -0.258720  89.518200 -10.931100  -0.059707  -2.969450   2.296630   0.494784   2.516820  -0.181506   0.999004   5.031960  -0.385343  -0.653389   0.017653   0.003060  -1.073400   0.036273   2.811730  -8.183610   2.767620  -0.008556 -72.913800  10.429400  -7.150050  -1.030380   2.135420 -12.445400   5.218360  -4.963500   2.906460  40.988000  33.953800 -57.314900 -31.097400   0.002700   0.002043 -10.548700   0.008619   0.002827 -36.066300   8.954790 -12.080700 -30.285100  -0.004415   0.003792 -21.202500  -0.003427   0.003646 -28.417800  -3.700500   5.893430 -42.706900   0.005981  -0.011858 -28.442800   0.004129   0.000347 -28.894700  -4.860460   8.749860 -43.899500   0.001354  -0.012246 -29.243300   0.001565  -0.000640 -38.094700 -12.656200  15.614700 -59.755500  -0.001528  -0.007454 -39.797200  -0.002348   0.001276   8.969490   0.088085   5.302030  72.137300   0.617694   1.904530  -2.454540  -9.159080   9.587390  -7.476440  -9.108830   1.545760 -36.227800  32.462400  68.283200  33.411300  -0.000556   0.000393  11.705600  -0.000301   0.002150  37.435300   9.250880  11.859600  31.416700  -0.005608   0.003403  21.991700  -0.004772   0.003887  36.119300  -0.002575   0.009670  54.052100   0.005892  -0.003590  36.024200   0.003694   0.009880  32.299200  -5.377850  -8.447390  49.044900  -0.004221  -0.001081  32.663900   0.004957  -0.000802  40.789300 -13.368600 -15.013400  63.838100  -0.005733   0.002268  42.516200   0.000182  -0.000505   1.699710   5.092130  -0.528324   0.899007  -0.041893  11.059500  -3.391650  -1.821400   0.913663   0.000000   0.000000  -0.000000  -0.551786   5.411470  -2.436060   0.462633   0.185356 -15.618800  -0.277553  -2.502630  -1.869600  -0.000000   0.000000   0.000000
 -0.254727  89.518200 -10.940100  -0.062019  -2.971590   2.250030   0.494977   2.527610  -0.183356   0.999604   5.053520  -0.389141  -0.633722   0.006421   0.003061  -1.041080   0.013349   3.190240  -8.183620   2.773560  -0.007637 -72.908300  10.461000  -7.165740  -1.044590   2.125200 -12.468100   5.221240  -4.963950   2.901880  40.977200  33.934800 -57.287200 -31.099100   0.002721   0.002015 -10.552700   0.008616   0.002826 -36.066000   8.954900 -12.080500 -30.284900  -0.004396   0.003782 -21.201600  -0.003417   0.003634 -28.418100  -3.700540   5.888340 -42.706800   0.005994  -0.011858 -28.442700   0.004132   0.000332 -28.897100  -4.860460   8.749850 -43.903000   0.001354  -0.012257 -29.242900   0.001572  -0.000659 -38.105800 -12.657500  15.613700 -59.772100  -0.001538  -0.007446 -39.808200  -0.002362   0.001283   8.970380   0.088007   5.296150  72.142600   0.607112   1.890050  -2.440500  -9.159460   9.579240  -7.456920  -9.100560   1.531680 -36.233100  32.453700  68.257000  33.414500  -0.000550   0.000394  11.707200  -0.000295   0.002152  37.356400   9.234530  11.872300  31.351600  -0.005606   0.003398  21.946200  -0.004784   0.003883  36.048500  -0.002571   0.009668  54.036300   0.005888  -0.003592  35.994500   0.003682   0.009875  32.283700  -5.377830  -8.447350  49.021700  -0.004223  -0.001080  32.648500   0.004955  -0.000801  40.777800 -13.368600 -15.013500  63.820900  -0.005739   0.002272  42.504800   0.000184  -0.000505   1.695440   5.035320  -0.525819   0.897323   0.081016  11.081100  -3.400730  -1.884170   0.930422  -0.000000   0.000000   0.000000  -0.556474   5.385630  -2.448710   0.465211   0.201821 -15.600600  -0.276385  -2.494000  -1.827080   0.000000   0.000000  -0.000000
